# xmcd
#
# Track frame offsets:
#  150
#  15234
#  31118
#  44510
#  61273
#  76864
#  91206
#  102967
#  119153
#  133176
#  152989
#  175044
#  189484
#  209021
#  224532
#  238280
#  252062
#  265731
#
# Disc length: 3722 seconds
#
# Revision: 0
# Processed by: cddbd v1.5.1PL2 Copyright (c) Steve Scherf et al.
# Submitted via: Collectorz.com_Music_Collector 6.10
#
DISCID=fb0e8812
DTITLE=Toyota National Country Music Muster - Toyota Muster Rural Aid Appeal volumes 25,26,27,28 (2004) [CD3)
DYEAR=2004
DGENRE=
TTITLE0=Sara Storer - Better Next Year
TTITLE1=Troy Cassar Daley - I Still Miss Someone
TTITLE2=THE FLOOD - You MIght Be There
TTITLE3=The Lees - Better Side Of Me
TTITLE4=Martin Oakes - Cleanskin Cat6tle
TTITLE5=Red Hot POker Dots - Country Bubble
TTITLE6=Michael Carr - While The Wife's Away
TTITLE7=Steve Forde and The Flange - In The Stars 
TTITLE8=Pixie Jenkins - Loosin My Blues Tonight
TTITLE9=JIMMY LITTLE - What's So Funny About Peace
TTITLE10=Jeanette Wormald - Messenger Bird
TTITLE11=Handpicked - The Country Salute
TTITLE12=Limestone - Getting Paid
TTITLE13=Anne Kirkpatrick and The Travelling Country Band - She's Going Again
TTITLE14=Topps Twins - Tijuana Rose
TTITLE15=Mark  Tempany - Goodbye Sweet Dreams
TTITLE16=Peter Dehany - The Drop Of Water
TTITLE17=Wolverines - Living On nThe Right Side Of
EXTD=
EXTT0=
EXTT1=
EXTT2=
EXTT3=
EXTT4=
EXTT5=
EXTT6=
EXTT7=
EXTT8=
EXTT9=
EXTT10=
EXTT11=
EXTT12=
EXTT13=
EXTT14=
EXTT15=
EXTT16=
EXTT17=
PLAYORDER=
